<svg width="42" height="42" viewBox="0 0 42 42" fill="none" xmlns="http://www.w3.org/2000/svg">
<path d="M21.8777 7.13652C21.6316 7.03788 21.3569 7.03788 21.1107 7.13652L8.80605 12.058L13.7626 14.0394L26.4508 8.96532L21.8777 7.13652ZM29.2259 10.0766L16.5377 15.1507L21.4942 17.132L34.1824 12.058L29.2259 10.0766ZM35.9267 13.5816L22.5251 18.9423V35.2757L35.9267 29.9151V13.5837V13.5816ZM20.4633 35.2778V18.9402L7.06178 13.5816V29.9171L20.4633 35.2778ZM20.3458 5.22113C21.083 4.92629 21.9054 4.92629 22.6426 5.22113L37.3411 11.1013C37.5322 11.1779 37.696 11.31 37.8114 11.4805C37.9267 11.651 37.9884 11.8521 37.9885 12.058V29.9171C37.9882 30.3291 37.8645 30.7316 37.6334 31.0726C37.4022 31.4137 37.0742 31.6776 36.6916 31.8305L21.8777 37.756C21.6316 37.8547 21.3569 37.8547 21.1107 37.756L6.29892 31.8305C5.91595 31.6779 5.58749 31.4141 5.35595 31.0731C5.12441 30.732 5.00043 30.3294 5 29.9171V12.058C5.00005 11.8521 5.06174 11.651 5.17712 11.4805C5.29251 11.31 5.4563 11.1779 5.6474 11.1013L20.3458 5.22113Z" fill="white"/>
</svg>
