<svg width="39" height="42" viewBox="0 0 39 42" fill="none" xmlns="http://www.w3.org/2000/svg">
<path d="M2.25 21H18V23.625H2.25V21ZM-0.375 14.4375H12.75V17.0625H-0.375V14.4375Z" fill="white"/>
<path d="M36.2688 21.7954L32.3313 12.6079C32.2303 12.3717 32.0621 12.1705 31.8477 12.0291C31.6332 11.8877 31.382 11.8124 31.1251 11.8125H27.1876V9.1875C27.1876 8.8394 27.0494 8.50556 26.8032 8.25942C26.5571 8.01328 26.2232 7.875 25.8751 7.875H4.87513V10.5H24.5626V26.9797C23.9646 27.327 23.4412 27.7893 23.0226 28.3398C22.6041 28.8904 22.2987 29.5183 22.124 30.1875H13.8763C13.5568 28.9503 12.7971 27.872 11.7395 27.1548C10.6819 26.4377 9.39908 26.1308 8.13145 26.2918C6.86382 26.4529 5.69842 27.0707 4.85371 28.0294C4.009 28.9882 3.54297 30.2222 3.54297 31.5C3.54297 32.7778 4.009 34.0118 4.85371 34.9706C5.69842 35.9293 6.86382 36.5471 8.13145 36.7082C9.39908 36.8692 10.6819 36.5623 11.7395 35.8452C12.7971 35.128 13.5568 34.0497 13.8763 32.8125H22.124C22.4095 33.9389 23.0625 34.938 23.9796 35.6517C24.8967 36.3653 26.0256 36.7528 27.1876 36.7528C28.3497 36.7528 29.4786 36.3653 30.3957 35.6517C31.3128 34.938 31.9657 33.9389 32.2513 32.8125H35.0626C35.4107 32.8125 35.7446 32.6742 35.9907 32.4281C36.2369 32.1819 36.3751 31.8481 36.3751 31.5V22.3125C36.3752 22.1347 36.339 21.9587 36.2688 21.7954ZM8.81263 34.125C8.29346 34.125 7.78594 33.971 7.35426 33.6826C6.92258 33.3942 6.58613 32.9842 6.38745 32.5045C6.18877 32.0249 6.13679 31.4971 6.23807 30.9879C6.33936 30.4787 6.58937 30.011 6.95648 29.6438C7.32359 29.2767 7.79132 29.0267 8.30052 28.9254C8.80972 28.8242 9.33752 28.8761 9.81718 29.0748C10.2968 29.2735 10.7068 29.6099 10.9952 30.0416C11.2837 30.4733 11.4376 30.9808 11.4376 31.5C11.4369 32.196 11.1602 32.8633 10.668 33.3554C10.1759 33.8475 9.50861 34.1243 8.81263 34.125ZM27.1876 14.4375H30.2589L33.0729 21H27.1876V14.4375ZM27.1876 34.125C26.6685 34.125 26.1609 33.971 25.7293 33.6826C25.2976 33.3942 24.9611 32.9842 24.7624 32.5045C24.5638 32.0249 24.5118 31.4971 24.6131 30.9879C24.7144 30.4787 24.9644 30.011 25.3315 29.6438C25.6986 29.2767 26.1663 29.0267 26.6755 28.9254C27.1847 28.8242 27.7125 28.8761 28.1922 29.0748C28.6718 29.2735 29.0818 29.6099 29.3702 30.0416C29.6587 30.4733 29.8126 30.9808 29.8126 31.5C29.8119 32.196 29.5352 32.8633 29.043 33.3554C28.5509 33.8475 27.8836 34.1243 27.1876 34.125ZM33.7501 30.1875H32.2513C31.9621 29.0633 31.3081 28.0667 30.3918 27.3542C29.4754 26.6416 28.3485 26.2532 27.1876 26.25V23.625H33.7501V30.1875Z" fill="white"/>
</svg>
