<svg width="42" height="42" viewBox="0 0 42 42" fill="none" xmlns="http://www.w3.org/2000/svg">
<g clip-path="url(#clip0_35_55)">
<path d="M31.9997 15.001H11C9.34313 15.001 8 16.3441 8 18.0009V33.0008C8 34.6576 9.34313 36.0007 11 36.0007H31.9997C33.6566 36.0007 34.9997 34.6576 34.9997 33.0008V18.0009C34.9997 16.3441 33.6566 15.001 31.9997 15.001Z" stroke="white" stroke-width="2" stroke-linecap="round" stroke-linejoin="round"/>
<path d="M21.4998 10.4999C21.4998 9.60994 21.2359 8.73993 20.7415 7.99991C20.247 7.2599 19.5442 6.68313 18.7219 6.34254C17.8997 6.00195 16.9949 5.91284 16.122 6.08647C15.2491 6.2601 14.4473 6.68868 13.818 7.31801C13.1886 7.94734 12.76 8.74915 12.5864 9.62205C12.4128 10.495 12.5019 11.3997 12.8425 12.222C13.1831 13.0443 13.7598 13.7471 14.4999 14.2415C15.2399 14.736 16.1099 14.9999 16.9999 14.9999M25.9998 14.9999C26.8898 14.9999 27.7598 14.736 28.4998 14.2415C29.2398 13.7471 29.8166 13.0443 30.1572 12.222C30.4978 11.3997 30.5869 10.495 30.4133 9.62205C30.2396 8.74915 29.8111 7.94734 29.1817 7.31801C28.5524 6.68868 27.7506 6.2601 26.8777 6.08647C26.0048 5.91284 25.1 6.00195 24.2777 6.34254C23.4555 6.68313 22.7527 7.2599 22.2582 7.99991C21.7638 8.73993 21.4998 9.60994 21.4998 10.4999M21.4998 10.4999V35.9997M34.9997 25.4998H8" stroke="white" stroke-width="2" stroke-linecap="round" stroke-linejoin="round"/>
</g>
<defs>
<clipPath id="clip0_35_55">
<rect width="42" height="42" fill="white"/>
</clipPath>
</defs>
</svg>
