<svg width="32" height="27" viewBox="0 0 32 27" fill="none" xmlns="http://www.w3.org/2000/svg">
<path d="M10.25 15.2165C13.955 15.2165 16.75 12.4215 16.75 8.7165C16.75 5.0115 13.955 2.2165 10.25 2.2165C6.545 2.2165 3.75 5.0115 3.75 8.7165C3.75 12.4215 6.545 15.2165 10.25 15.2165ZM10.25 5.4665C12.1643 5.4665 13.5 6.80225 13.5 8.7165C13.5 10.6307 12.1643 11.9665 10.25 11.9665C8.33575 11.9665 7 10.6307 7 8.7165C7 6.80225 8.33575 5.4665 10.25 5.4665ZM11.875 16.8415H8.625C4.14488 16.8415 0.5 20.4864 0.5 24.9665V26.5915H3.75V24.9665C3.75 22.2787 5.93725 20.0915 8.625 20.0915H11.875C14.5627 20.0915 16.75 22.2787 16.75 24.9665V26.5915H20V24.9665C20 20.4864 16.3551 16.8415 11.875 16.8415ZM27.0915 0L24.7938 2.29775C26.9404 4.44763 28.125 7.30438 28.125 10.3415C28.125 13.3786 26.9404 16.2354 24.7938 18.3852L27.0915 20.683C29.854 17.9189 31.375 14.2464 31.375 10.3415C31.375 6.43663 29.854 2.76412 27.0915 0Z" fill="black"/>
<path d="M22.494 4.5957L20.1963 6.8967C21.1177 7.81483 21.6247 9.03845 21.6247 10.3417C21.6247 11.645 21.1177 12.8686 20.1963 13.7867L22.494 16.0877C24.028 14.5537 24.8747 12.5143 24.8747 10.3417C24.8747 8.16908 24.028 6.1297 22.494 4.5957Z" fill="black"/>
</svg>
